<?xml version="1.0" encoding="utf-8"?>
<!-- Generator: Adobe Illustrator 15.0.0, SVG Export Plug-In . SVG Version: 6.00 Build 0)  -->
<!DOCTYPE svg PUBLIC "-//W3C//DTD SVG 1.1//EN" "http://www.w3.org/Graphics/SVG/1.1/DTD/svg11.dtd">
<svg version="1.1" id="Layer_1" xmlns="http://www.w3.org/2000/svg" xmlns:xlink="http://www.w3.org/1999/xlink" x="0px" y="0px"
	 width="64px" height="64px" viewBox="0 0 64 64" enable-background="new 0 0 64 64" xml:space="preserve">
<circle fill="none" stroke="#E7A555" stroke-miterlimit="10" cx="32" cy="32" r="27.272"/>
<g>
	<rect x="12.708" y="12.708" fill="none" width="38.584" height="38.584"/>
	<path fill="#E7A555" d="M21.241,19.306c0.494-1.537,1.236-2.862,2.226-3.975c0.989-1.113,2.217-1.979,3.684-2.597
		c1.466-0.618,3.118-0.928,4.956-0.928c1.449,0,2.809,0.195,4.081,0.583c1.272,0.389,2.376,0.954,3.312,1.696
		c0.937,0.742,1.679,1.661,2.227,2.756c0.547,1.096,0.821,2.35,0.821,3.763c0,1.343-0.186,2.517-0.557,3.524
		c-0.371,1.007-0.83,1.891-1.378,2.65c-0.548,0.76-1.122,1.404-1.723,1.935c-0.601,0.53-1.112,0.99-1.537,1.378
		c-0.953,0.919-1.767,1.758-2.438,2.518c-0.672,0.76-1.211,1.537-1.616,2.332c-0.407,0.795-0.708,1.669-0.901,2.623
		c-0.194,0.954-0.292,2.067-0.292,3.339h-1.06c0-1.2,0.088-2.278,0.265-3.232c0.176-0.954,0.459-1.863,0.848-2.729
		c0.388-0.865,0.918-1.723,1.59-2.571c0.671-0.848,1.501-1.749,2.491-2.703c0.212-0.212,0.601-0.547,1.166-1.007
		c0.564-0.458,1.156-1.06,1.775-1.802c0.617-0.742,1.157-1.634,1.616-2.677c0.459-1.042,0.689-2.234,0.689-3.577
		c0-1.236-0.239-2.34-0.716-3.312c-0.477-0.972-1.131-1.784-1.961-2.438c-0.831-0.654-1.82-1.148-2.968-1.484
		c-1.148-0.335-2.395-0.503-3.737-0.503c-1.731,0-3.269,0.283-4.611,0.848c-1.343,0.565-2.457,1.352-3.339,2.358
		c-0.883,1.007-1.537,2.226-1.961,3.657c-0.424,1.431-0.601,2.994-0.53,4.69h-1.06C20.534,22.548,20.746,20.843,21.241,19.306z
		 M31.046,45.355h1.06v5.194h-1.06V45.355z"/>
</g>
</svg>
